<svg width="20" height="20" viewBox="0 0 20 20" fill="none" xmlns="http://www.w3.org/2000/svg">
<g clip-path="url(#clip0_29235_24157)">
<path d="M20.0005 10.0605C20.0005 4.50305 15.523 -0.00195312 10.0005 -0.00195312C4.47555 -0.000703125 -0.00195312 4.50305 -0.00195312 10.0618C-0.00195312 15.083 3.65555 19.2455 8.43555 20.0005V12.9693H5.89805V10.0618H8.43805V7.84305C8.43805 5.3218 9.9318 3.9293 12.2155 3.9293C13.3105 3.9293 14.4543 4.12555 14.4543 4.12555V6.60055H13.193C11.9518 6.60055 11.5643 7.3768 11.5643 8.17305V10.0605H14.3368L13.8943 12.968H11.563V19.9993C16.343 19.2443 20.0005 15.0818 20.0005 10.0605Z" fill="#1C1B1C"/>
</g>
<defs>
<clipPath id="clip0_29235_24157">
<rect width="20" height="20" fill="white"/>
</clipPath>
</defs>
</svg>
