<svg width="20" height="20" viewBox="0 0 20 20" fill="none" xmlns="http://www.w3.org/2000/svg">
<g clip-path="url(#clip0_28907_21286)">
<rect width="20" height="20" fill="white"/>
<path d="M6.96916 0.658267C4.97085 1.3515 3.24751 2.66728 2.05227 4.41233C0.857035 6.15739 0.252899 8.23974 0.328604 10.3535C0.404308 12.4673 1.15586 14.5011 2.47288 16.1562C3.78989 17.8113 5.60294 19.0004 7.64572 19.5489C9.30185 19.9762 11.037 19.995 12.702 19.6036C14.2103 19.2648 15.6048 18.5401 16.7488 17.5005C17.9396 16.3854 18.8039 14.9668 19.2488 13.3973C19.7323 11.6905 19.8184 9.89567 19.5004 8.15045H10.2004V12.0083H15.5863C15.4787 12.6236 15.248 13.2108 14.9081 13.7349C14.5683 14.2589 14.1261 14.7091 13.6082 15.0583C12.9506 15.4935 12.2092 15.7862 11.4317 15.9176C10.6519 16.0627 9.85206 16.0627 9.07229 15.9176C8.2819 15.7544 7.53422 15.4282 6.87697 14.9598C5.82096 14.2123 5.02803 13.1503 4.61135 11.9255C4.18774 10.6776 4.18774 9.32486 4.61135 8.07702C4.90795 7.20235 5.39828 6.40598 6.04572 5.74733C6.78665 4.97975 7.72468 4.43108 8.75691 4.16151C9.78913 3.89195 10.8757 3.91191 11.8973 4.2192C12.6954 4.46409 13.4252 4.89214 14.0285 5.4692C14.6358 4.86504 15.2421 4.25931 15.8473 3.65202C16.1598 3.32545 16.5004 3.01452 16.8082 2.68014C15.8872 1.82314 14.8061 1.15624 13.627 0.717642C11.4796 -0.0620611 9.13006 -0.0830148 6.96916 0.658267Z" fill="white"/>
<path d="M6.96758 0.657806C9.1283 -0.08398 11.4779 -0.0635778 13.6254 0.715618C14.8048 1.1572 15.8853 1.82731 16.8051 2.68749C16.4926 3.02187 16.1629 3.33437 15.8441 3.65937C15.2379 4.26458 14.6322 4.8677 14.027 5.46874C13.4237 4.89168 12.6938 4.46362 11.8957 4.21874C10.8744 3.91037 9.78792 3.88926 8.75542 4.15772C7.72292 4.42618 6.78432 4.97384 6.04258 5.74062C5.39513 6.39927 4.90481 7.19564 4.6082 8.07031L1.36914 5.56249C2.52853 3.26337 4.53594 1.50472 6.96758 0.657806Z" fill="#E33629"/>
<path d="M0.510152 8.04736C0.68412 7.18451 0.973161 6.34892 1.36953 5.56299L4.60859 8.07705C4.18498 9.32489 4.18498 10.6776 4.60859 11.9255C3.52942 12.7588 2.44974 13.5963 1.36953 14.438C0.377575 12.4635 0.0750466 10.2138 0.510152 8.04736Z" fill="#F8BD00"/>
<path d="M10.196 8.14868H19.496C19.814 9.8939 19.7279 11.6888 19.2444 13.3956C18.7995 14.9651 17.9352 16.3836 16.7444 17.4987C15.6991 16.6831 14.6491 15.8737 13.6038 15.0581C14.1221 14.7085 14.5644 14.2579 14.9043 13.7333C15.2442 13.2086 15.4747 12.6208 15.5819 12.0049H10.196C10.1944 10.7206 10.196 9.43462 10.196 8.14868Z" fill="#587DBD"/>
<path d="M1.36914 14.4371C2.44935 13.6037 3.52904 12.7662 4.6082 11.9246C5.02571 13.1499 5.81977 14.2119 6.87695 14.9589C7.53625 15.4251 8.28554 15.7487 9.07695 15.9089C9.85673 16.054 10.6566 16.054 11.4363 15.9089C12.2139 15.7775 12.9553 15.4848 13.6129 15.0496C14.6582 15.8652 15.7082 16.6746 16.7535 17.4902C15.6096 18.5304 14.2151 19.2556 12.7066 19.5949C11.0417 19.9863 9.30652 19.9675 7.65039 19.5402C6.34055 19.1905 5.11707 18.5739 4.05664 17.7292C2.93434 16.838 2.01763 15.7151 1.36914 14.4371Z" fill="#319F43"/>
</g>
<defs>
<clipPath id="clip0_28907_21286">
<rect width="20" height="20" fill="white"/>
</clipPath>
</defs>
</svg>
