<svg width="32" height="32" viewBox="0 0 32 32" fill="currentColor" xmlns="http://www.w3.org/2000/svg">
<path d="M13.332 20.666C12.7854 20.666 12.332 21.1193 12.332 21.666V23.666C12.332 24.2127 12.7854 24.666 13.332 24.666C13.8787 24.666 14.332 24.2127 14.332 23.666V21.666C14.332 21.1193 13.8787 20.666 13.332 20.666Z" fill="currentColor" fill-opacity="1"/>
<path d="M29.3346 28.3336H28.0013V13.307C28.0013 12.4803 27.628 11.707 26.9746 11.2003L17.6413 3.94695C16.6813 3.18695 15.3213 3.18695 14.3613 3.94695L5.02797 11.2003C4.37464 11.707 4.0013 12.4803 4.0013 13.2936L3.93464 28.3336H2.66797C2.1213 28.3336 1.66797 28.7736 1.66797 29.3336C1.66797 29.8803 2.1213 30.3336 2.66797 30.3336H29.3346C29.8813 30.3336 30.3346 29.8803 30.3346 29.3336C30.3346 28.7736 29.8813 28.3336 29.3346 28.3336ZM14.0013 9.00029H18.0013C18.548 9.00029 19.0013 9.45362 19.0013 10.0003C19.0013 10.547 18.548 11.0003 18.0013 11.0003H14.0013C13.4546 11.0003 13.0013 10.547 13.0013 10.0003C13.0013 9.45362 13.4546 9.00029 14.0013 9.00029ZM22.668 28.3336H9.33464V16.667C9.33464 15.5603 10.228 14.667 11.3346 14.667H20.668C21.7746 14.667 22.668 15.5603 22.668 16.667V28.3336Z" fill="currentColor" fill-opacity="1"/>
</svg>
