<svg width="20" height="20" viewBox="0 0 20 20" fill="currentColor" xmlns="http://www.w3.org/2000/svg">
<path fill-rule="evenodd" clip-rule="evenodd" d="M8.26642 3.02585C7.55357 3.56973 6.72478 4.39665 5.56169 5.55974C4.3986 6.72282 3.57169 7.55162 3.0278 8.26447C2.49492 8.96289 2.29297 9.47606 2.29297 9.99935C2.29297 10.5226 2.49492 11.0358 3.0278 11.7342C3.57169 12.4471 4.3986 13.2759 5.56169 14.439C6.72478 15.602 7.55357 16.429 8.26642 16.9728C8.96484 17.5057 9.47801 17.7077 10.0013 17.7077C10.5246 17.7077 11.0378 17.5057 11.7362 16.9728C12.449 16.429 13.2778 15.602 14.4409 14.439C15.604 13.2759 16.4309 12.4471 16.9748 11.7342C17.5077 11.0358 17.7096 10.5226 17.7096 9.99935C17.7096 9.47606 17.5077 8.96289 16.9748 8.26446C16.4309 7.55162 15.604 6.72282 14.4409 5.55974C13.2778 4.39665 12.449 3.56973 11.7362 3.02585C11.0378 2.49297 10.5246 2.29102 10.0013 2.29102C9.47801 2.29102 8.96484 2.49297 8.26642 3.02585ZM7.50819 2.03207C8.31781 1.41436 9.09482 1.04102 10.0013 1.04102C10.9078 1.04102 11.6848 1.41436 12.4944 2.03207C13.2818 2.63285 14.1692 3.5202 15.2915 4.64253L15.3581 4.70918C16.4805 5.83149 17.3678 6.71883 17.9686 7.50624C18.5863 8.31585 18.9596 9.09286 18.9596 9.99935C18.9596 10.9058 18.5863 11.6828 17.9686 12.4925C17.3678 13.2799 16.4805 14.1672 15.3581 15.2895L15.2915 15.3562C14.1692 16.4785 13.2818 17.3659 12.4944 17.9666C11.6848 18.5843 10.9078 18.9577 10.0013 18.9577C9.09482 18.9577 8.31781 18.5843 7.50819 17.9666C6.72078 17.3659 5.83344 16.4785 4.71113 15.3562L4.64448 15.2895C3.52215 14.1672 2.6348 13.2799 2.03403 12.4925C1.41631 11.6828 1.04297 10.9058 1.04297 9.99935C1.04297 9.09286 1.41631 8.31585 2.03403 7.50624C2.6348 6.71883 3.52214 5.8315 4.64446 4.7092L4.71115 4.64251C5.83346 3.52019 6.72078 2.63284 7.50819 2.03207Z" fill="currentColor"/>
<path fill-rule="evenodd" clip-rule="evenodd" d="M10.6565 7.07189C10.8925 6.82007 11.2881 6.80731 11.5399 7.04339L13.7621 9.12672C13.8881 9.24488 13.9596 9.40993 13.9596 9.58268C13.9596 9.75544 13.8881 9.92049 13.7621 10.0386L11.5399 12.122C11.2881 12.3581 10.8925 12.3453 10.6565 12.0935C10.4204 11.8417 10.4331 11.4461 10.6849 11.2101L11.7541 10.2077H8.89019C8.61204 10.2077 8.18672 10.2908 7.85097 10.5174C7.54865 10.7215 7.29297 11.0539 7.29297 11.666C7.29297 12.0112 7.01315 12.291 6.66797 12.291C6.32279 12.291 6.04297 12.0112 6.04297 11.666C6.04297 10.6115 6.52803 9.90225 7.15163 9.48132C7.74181 9.08295 8.4276 8.95768 8.89019 8.95768H11.7541L10.6849 7.95531C10.4331 7.71923 10.4204 7.32371 10.6565 7.07189Z" fill="currentColor"/>
</svg>
