<svg width="18" height="18" viewBox="0 0 18 18" fill="none" xmlns="http://www.w3.org/2000/svg">
<rect width="17.4794" height="17.4794" rx="8.7397" fill="white"/>
<path d="M4.79051 11.2753C3.76012 11.8889 1.05851 13.1417 2.70397 14.7093C3.50777 15.4751 4.40299 16.0228 5.5285 16.0228H11.9509C13.0764 16.0228 13.9716 15.4751 14.7754 14.7093C16.4209 13.1417 13.7193 11.8889 12.6889 11.2753C10.2727 9.83661 7.20676 9.83661 4.79051 11.2753Z" stroke="#1C1B1C" stroke-linecap="round" stroke-linejoin="round"/>
<path d="M12.0171 4.73393C12.0171 6.54398 10.5497 8.01131 8.73967 8.01131C6.92962 8.01131 5.46228 6.54398 5.46228 4.73393C5.46228 2.92388 6.92962 1.45654 8.73967 1.45654C10.5497 1.45654 12.0171 2.92388 12.0171 4.73393Z" stroke="#1C1B1C"/>
</svg>
